<svg xmlns="http://www.w3.org/2000/svg" width="87" height="67" viewBox="0 0 87 67"><defs><style>.cls-1{fill:#fff;fill-rule:evenodd}</style></defs><path id="Фигура_1" data-name="Фигура 1" class="cls-1" d="M232.383 75.306c3.014-.956 7.419-4.151-.08-4.629-4.146-.264-6.294 2.531-7.394 4.626 3.591 1.397 4.459.959 7.474.003zm24.33-13.293L257 56h-83.808l-.263 5.518L170 123h83.807l.8-16.75zm-74.839 9.248a.71.71 0 0 1-.808-1.064c2.985-4.792 7.179-8.807 11.84-6.194 5.453 3.057 14.063 12.908 17.541 3.854a.511.511 0 0 1 1 .136 7.143 7.143 0 0 1-3.171 6.762 32.287 32.287 0 0 0-7.546 7.353c-2.689 3.812-4.783 7.938-10.095 9.911-1.733.644-4.89 1.033-6.082-.35-3.075-3.567-4.834-7.212-4.007-10.071a22.128 22.128 0 0 1 5.908-9.151s-2.164-2.03-4.58-1.186zm31.974 20.649c4.631 0 8.386.575 8.386 1.285 0 .328-.8.846-2.117 1.31a10.3 10.3 0 0 0-4.865 3.651 1.52 1.52 0 0 1-2.807 0 10.309 10.309 0 0 0-4.865-3.656c-1.317-.463-2.118-.982-2.118-1.31 0-.705 3.755-1.28 8.386-1.28zm5.64-17.154a7.144 7.144 0 0 1-3.172-6.762.512.512 0 0 1 1-.136c3.478 9.054 12.088-.8 17.541-3.854 4.661-2.613 8.855 1.4 11.84 6.194a.71.71 0 0 1-.808 1.064c-2.416-.843-4.576 1.186-4.576 1.186a22.125 22.125 0 0 1 5.909 9.151c.827 2.859-.932 6.5-4.007 10.071-1.192 1.383-4.349.993-6.082.35-5.312-1.973-7.406-6.1-10.095-9.911a32.306 32.306 0 0 0-7.55-7.354zm32.264 46.091H172.26l.7-14.6h79.493zm-56.376-45.54c3.014.956 3.885 1.39 7.474 0-1.1-2.094-3.248-4.89-7.394-4.626-7.499.473-3.094 3.669-.08 4.625zm-13.2 44.191l.265-4.154h4.206l.159-2.489H182.6l.14-2.183h4.286l.159-2.489h-6.874l-.724 11.317h2.589zm10.094.226c2.491 0 4.461-1.454 4.616-3.879l.489-7.662h-2.587l-.476 7.436a1.6 1.6 0 0 1-1.88 1.584c-1.375 0-1.733-.727-1.678-1.584l.475-7.436h-2.588l-.49 7.662c-.151 2.424 1.628 3.878 4.119 3.878zm11.63 0a6.034 6.034 0 0 0 5.02-2.618l-2.149-1.293a3.129 3.129 0 0 1-2.71 1.39 2.912 2.912 0 0 1-3.085-3.362 3.377 3.377 0 0 1 3.515-3.362 2.721 2.721 0 0 1 2.532 1.39l2.314-1.293a5.242 5.242 0 0 0-4.685-2.619 6.2 6.2 0 0 0-6.264 5.884 5.324 5.324 0 0 0 5.512 5.882zm9-5.463l3.288 5.237h2.944l-3.608-5.8 4.17-5.512h-2.944l-3.776 4.914.315-4.914H210.7l-.72 11.314h2.588zm15.826 1.923a2.72 2.72 0 0 0-1.228-2.553 3.077 3.077 0 0 0-2.24-5.448h-4.432l-.72 11.317h4.755a3.655 3.655 0 0 0 3.868-3.317zm-5.467-5.576h1.844a.879.879 0 0 1 .923 1 1.032 1.032 0 0 1-1.051 1h-1.844zm-.275 4.3h2.168a.95.95 0 0 1 1 1.083 1.1 1.1 0 0 1-1.137 1.083h-2.167zm14.1 2.1h-4.529l.128-2h4.044l.157-2.456h-4.044l.12-1.876h4.448l.159-2.489h-7.036l-.721 11.313h7.118zm3.4 2.489h2.588l.564-8.826h2.912l.159-2.489H238.3l-.159 2.489h2.911z" transform="translate(-170 -56)"/></svg>